<svg id="Layer_1" data-name="Layer 1" xmlns="http://www.w3.org/2000/svg" viewBox="0 0 1080 1080"><defs><style>.cls-1{fill:#059669;}</style></defs><path class="cls-1" d="M892.56814,217.56311S699.89388,185.09071,503.29375,74.86769c-196.60013,110.223-389.27438,142.69542-389.27438,142.69542-8.23254,672.31516,389.27438,787.5692,389.27438,787.5692S900.80067,889.87827,892.56814,217.56311Zm-152.251,417.51547c-6.4118,40.07348-28.31864,80.14683-28.31864,80.14683l1.06863-99.91628s0-55.03409-52.89694-64.6519L552.77321,524.476l116.48021,90.83315s11.22052,5.47671-25.24641,124.09381L584.298,820.3513l38.1691-93.37106,7.11374-96.9776-81.08191-95.64187v8.54906s39.27206,49.1566,36.86746,92.436c-2.40436,43.27925-15.60608,71.33067-82.07263,104.45791-66.46606-33.12724-79.668-61.17866-82.07238-104.45791-2.35177-42.327,35.15944-90.27558,36.81121-92.36524a.26211.26211,0,0,0,.05624-.17214v-7.65354a.29117.29117,0,0,0-.51325-.18846l-80.49147,94.9454a.29078.29078,0,0,0-.06818.20964l7.10133,96.81264a.28765.28765,0,0,0,.02094.089l37.26554,91.16026a.29125.29125,0,0,1-.504.283L362.6102,739.44312a.29346.29346,0,0,1-.04431-.08826C326.117,620.78438,337.33433,615.30913,337.33433,615.30913l115.4106-89.99923a.29125.29125,0,0,0-.24786-.51277l-106.07949,25.8601c-52.89669,9.61781-52.89669,64.6519-52.89669,64.6519l1.05572,98.72505a.28954.28954,0,0,1-.543.15072c-3.44767-6.536-21.95724-42.82114-27.763-79.10632-4.54723-28.42187,3.67216-63.563,8.83588-81.59528a25.38942,25.38942,0,0,1,14.74123-16.4574l39.42618-16.27114a.2897.2897,0,0,1,.095-.02167l126.6131-6.92846a.29137.29137,0,0,0,.27538-.28536l.09057-4.70866a.29083.29083,0,0,0-.21864-.28767L325.32761,474.92262l-.03019-.00937c-54.08317-19.2433-48.07312-90.56058-48.07312-90.56058l3.52388-88.87934a.29139.29139,0,0,1,.57437-.05685l14.73637,60.8849c19.2349,79.74605,52.49617,89.36362,52.49617,89.36362L457.345,491.84251a.29124.29124,0,0,0,.40515-.27123l-.06063-5.58725a.29082.29082,0,0,0-.11857-.23155L349.73353,406.474a.29141.29141,0,0,1-.11808-.2173l-4.83235-81.269a58.46833,58.46833,0,0,1,7.66669-32.59353l33.47213-58.266a.28564.28564,0,0,1,.52154.224c-22.21534,82.98641-6.18658,153.85276-5.58032,156.471a.26827.26827,0,0,0,.07767.134l78.25511,77.19415a.29139.29139,0,0,0,.496-.20732V455.88762a.28836.28836,0,0,0-.0336-.13379c-15.891-29.99536-16.2547-56.91825-16.263-58.13407a.26164.26164,0,0,1,.017-.09252c12.60884-36.32218,36.73768-52.05012,41.10619-54.6556a.28791.28791,0,0,1,.40588.36218c-22.14253,60.0522-4.61223,88.02-3.27188,90.02553a.26566.26566,0,0,0,.23423.11638h42.96906s19.96972-27.98446-3.47324-90.89974c0,0,27.91763,15.02745,41.81009,55.10092,0,0,0,27.5171-16.29683,58.24v12.82347L625.70707,390.898s17.36522-73.20072-6.14445-158.6907l33.64013,58.55918a64.7454,64.7454,0,0,1,8.49038,36.09514l-4.72886,79.53143L548.89945,485.83855l-.06647,6.17793L658.0329,445.665s33.26079-9.61757,52.49617-89.36362l15.22771-62.91528,3.60691,90.96657s6.01078,71.33067-48.08822,90.56581l-131.04005,33.6618.10032,5.20949,126.93254,6.94612,34.26855,14.14251a36.93144,36.93144,0,0,1,21.62538,24.71539C738.20736,578.705,744.39466,609.59307,740.31711,635.07858Z"/></svg>